<svg width="67" height="101" viewBox="0 0 67 101" fill="none" xmlns="http://www.w3.org/2000/svg">
<path fill-rule="evenodd" clip-rule="evenodd" d="M33.3342 50.1835C33.3342 40.9786 40.7963 33.5166 50.0012 33.5166C59.2061 33.5166 66.6681 40.9786 66.6681 50.1835C66.6681 59.3884 59.2061 66.8505 50.0012 66.8505C40.7963 66.8505 33.3342 59.3884 33.3342 50.1835Z" fill="#1ABCFE"/>
<path fill-rule="evenodd" clip-rule="evenodd" d="M0 83.5146C0 74.3097 7.46204 66.8477 16.6669 66.8477H33.3339V83.5146C33.3339 92.7195 25.8718 100.182 16.6669 100.182C7.46204 100.182 0 92.7195 0 83.5146Z" fill="#0ACF83"/>
<path fill-rule="evenodd" clip-rule="evenodd" d="M33.3342 0.181641V33.5155H50.0012C59.2061 33.5155 66.6681 26.0535 66.6681 16.8486C66.6681 7.64368 59.2061 0.181641 50.0012 0.181641H33.3342Z" fill="#FF7262"/>
<path fill-rule="evenodd" clip-rule="evenodd" d="M0 16.8486C0 26.0535 7.46204 33.5155 16.6669 33.5155H33.3339V0.181641H16.6669C7.46204 0.181641 0 7.64368 0 16.8486Z" fill="#F24E1E"/>
<path fill-rule="evenodd" clip-rule="evenodd" d="M0 50.1835C0 59.3884 7.46204 66.8505 16.6669 66.8505H33.3339V33.5166H16.6669C7.46204 33.5166 0 40.9786 0 50.1835Z" fill="#A259FF"/>
</svg>
