<svg width="101" height="101" viewBox="0 0 101 101" fill="none" xmlns="http://www.w3.org/2000/svg">
<path fill-rule="evenodd" clip-rule="evenodd" d="M50.668 0.181641C23.0475 0.181641 0.667969 23.1265 0.667969 51.4447C0.667969 74.0892 14.9909 93.3128 34.8639 100.088C37.3704 100.555 38.2819 98.9865 38.2819 97.6181C38.2819 96.4 38.2331 93.1794 38.2168 88.9074C24.3008 91.9946 21.3711 82.0323 21.3711 82.0323C19.0924 76.1084 15.821 74.5231 15.821 74.5231C11.2799 71.3525 16.1628 71.4193 16.1628 71.4193C21.1758 71.7864 23.8125 76.6924 23.8125 76.6924C28.2721 84.5354 35.515 82.2659 38.3633 80.9643C38.819 77.6436 40.1211 75.3908 41.5371 74.1059C30.4368 72.821 18.7669 68.4156 18.7669 48.7747C18.7669 43.1678 20.7201 38.5956 23.9102 35.0078C23.4056 33.7229 21.6803 28.4998 24.3984 21.4411C24.3984 21.4411 28.5977 20.0728 38.1517 26.6976C42.1393 25.5629 46.4199 24.9955 50.668 24.9788C54.916 24.9955 59.1966 25.5629 63.1842 26.6976C72.7383 20.0728 76.9212 21.4411 76.9212 21.4411C79.6556 28.4998 77.9466 33.7229 77.4258 35.0078C80.6322 38.5956 82.5527 43.1678 82.5527 48.7747C82.5527 68.4656 70.8665 72.7876 59.7337 74.0725C61.5241 75.6411 63.1191 78.7783 63.1191 83.5508C63.1191 90.4093 63.0703 95.9327 63.0703 97.6181C63.0703 98.9865 63.9655 100.588 66.5046 100.088C86.3613 93.2962 100.668 74.0892 100.668 51.4447C100.668 23.1265 78.2884 0.181641 50.668 0.181641Z" fill="#75757A"/>
</svg>
