<svg width="101" height="101" viewBox="0 0 101 101" fill="none" xmlns="http://www.w3.org/2000/svg">
<path d="M86.3179 4.35547C91.942 4.35547 96.5015 8.91494 96.5015 14.5391V85.8223C96.5015 91.4464 91.942 96.0059 86.3179 96.0059H15.0347C9.41054 96.0059 4.85107 91.4464 4.85107 85.8223V14.5391C4.85107 8.91494 9.41054 4.35547 15.0347 4.35547H86.3179ZM18.8901 82.2764C18.8901 82.8287 19.3379 83.2764 19.8901 83.2764H31.5571C32.1094 83.2764 32.5571 82.8287 32.5571 82.2764V40.1484C32.5571 39.5962 32.1094 39.1484 31.5571 39.1484H19.8901C19.3379 39.1484 18.8901 39.5962 18.8901 40.1484V82.2764ZM67.7065 37.8008C62.5182 37.8008 58.9945 40.0393 56.8836 42.0358C56.1295 42.7491 54.4009 42.1777 54.4009 41.1396V40.1484C54.4009 39.5962 53.9532 39.1484 53.4009 39.1484H42.2944C41.7421 39.1484 41.2944 39.5962 41.2944 40.1484V82.2764C41.2944 82.8287 41.7421 83.2764 42.2944 83.2764H53.4009C53.9532 83.2764 54.4009 82.8287 54.4009 82.2764V60.1123C54.4009 53.9055 57.2585 50.2119 62.7271 50.2119C67.7537 50.2121 70.1665 53.7614 70.1665 60.1123V82.2764C70.1665 82.8287 70.6142 83.2764 71.1665 83.2764H82.7671C83.3194 83.2764 83.7671 82.8287 83.7671 82.2764V55.3379C83.7671 43.5167 77.0663 37.8009 67.7065 37.8008ZM25.6577 17.085C21.1933 17.085 17.5758 20.7308 17.5757 25.2275C17.5757 29.7243 21.1932 33.3711 25.6577 33.3711C30.1221 33.371 33.7378 29.7243 33.7378 25.2275C33.7377 20.7309 30.1221 17.0851 25.6577 17.085Z" fill="#75757A"/>
</svg>
